<svg width="55" height="55" viewBox="0 0 55 55" fill="none" xmlns="http://www.w3.org/2000/svg">
<path d="M27.36 0C12.24 0 0 12.24 0 27.36C0 42.48 12.24 54.72 27.36 54.72C42.48 54.72 54.72 42.48 54.72 27.36C54.72 12.24 42.48 0 27.36 0ZM27.36 51.84C13.824 51.84 2.88 40.896 2.88 27.36C2.88 13.824 13.824 2.88 27.36 2.88C40.896 2.88 51.84 13.824 51.84 27.36C51.84 40.896 40.896 51.84 27.36 51.84ZM41.4 27.36C41.4 28.152 40.752 28.8 39.96 28.8H14.76C13.968 28.8 13.32 28.152 13.32 27.36C13.32 26.568 13.968 25.92 14.76 25.92H39.96C40.752 25.92 41.4 26.568 41.4 27.36ZM41.4 36C41.4 36.792 40.752 37.44 39.96 37.44H14.76C13.968 37.44 13.32 36.792 13.32 36C13.32 35.208 13.968 34.56 14.76 34.56H39.96C40.752 34.56 41.4 35.208 41.4 36ZM41.4 18.72C41.4 19.512 40.752 20.16 39.96 20.16H14.76C13.968 20.16 13.32 19.512 13.32 18.72C13.32 17.928 13.968 17.28 14.76 17.28H39.96C40.752 17.28 41.4 17.928 41.4 18.72Z" fill="#ADFD03"/>
</svg>
